<svg xmlns="http://www.w3.org/2000/svg" version="1.1" xmlns:xlink="http://www.w3.org/1999/xlink" xmlns:svgjs="http://svgjs.dev/svgjs" width="100%" height="100%" viewBox="0 0 1000 600"><rect width="1000" height="600" x="0" y="0" fill="#ffffff"/><g><circle r="166.66666666666666" cx="358.17653910319007" cy="380.39878330422437" fill="#ff914d" transform="matrix(0.652707813180236,0,0,0.6527078131802359,0,51.71074017779458)"/><path d="M244.7660321252689 455.3987915712862Q240.01446424417412 455.3987915712862 236.44475842487446 454.9887577947451Q232.89917223948902 454.55460438428963 229.76361983064473 452.9385889120391L229.76361983064473 452.9385889120391Q221.53882466590704 448.9588493161983 221.53882466590704 436.99551089476165L221.53882466590704 436.99551089476165Q221.53882466590704 431.2309183892711 223.34779720947103 423.1749606619327Q225.18088938694925 415.1190029345943 228.5576381349354 405.78470460980395L228.5576381349354 405.78470460980395Q236.03472464833328 385.2830157827452 247.05739734711665 366.3732227940228L247.05739734711665 366.3732227940228Q238.3984487719236 366.87973510622066 233.35744528385857 368.95402362284074Q228.31644179579354 371.0283121394608 226.700426323543 375.3457266101002L226.700426323543 375.3457266101002Q227.472254608797 375.3457266101002 228.21996326013678 377.1305795197501Q228.99179154539075 378.91543242939986 228.99179154539075 380.77264424079226L228.99179154539075 380.77264424079226Q228.99179154539075 383.83583774789395 226.1939140113451 385.69304955928635Q223.39603647729942 387.57438100459296 219.24745944405927 387.57438100459296L219.24745944405927 387.57438100459296Q214.56825046470703 387.57438100459296 211.60153549326208 385.01769980968913L211.60153549326208 385.01769980968913Q208.4659830844178 382.3886597130428 208.4659830844178 377.4682543945487L208.4659830844178 377.4682543945487Q208.4659830844178 373.1508399239093 211.09502318106416 369.2193395958968Q213.7240632777105 365.26371963397014 218.57210969446206 362.3693635642677L218.57210969446206 362.3693635642677Q223.49251501295618 359.40264859282274 229.95657690195821 357.7625134866581Q236.44475842487446 356.0982587465792 243.9218449382724 356.0982587465792L243.9218449382724 356.0982587465792Q247.56390965931456 356.0982587465792 252.99082729000662 356.60477105877715L252.99082729000662 356.60477105877715Q267.5832058080896 333.6428795724713 282.15146469225846 320.5700379909821L282.15146469225846 320.5700379909821Q299.10756733393174 305.3987882589586 313.36227097721616 305.3987882589586L313.36227097721616 305.3987882589586Q321.8523821150099 305.3987882589586 327.11046230830266 307.85899091820556L327.11046230830266 307.85899091820556L299.87939561918574 435.6448113955672L274.86733525017405 435.6448113955672L288.18137317080516 372.64432761171133Q281.9102683531166 369.7499715420089 276.43511145459615 368.32691314107194Q270.9599545560758 366.87973510622066 264.95416571144324 366.3732227940228L264.95416571144324 366.3732227940228Q255.11335507445506 387.6467399063355 248.84225025676648 409.8609227413016L248.84225025676648 409.8609227413016Q242.4023080016786 432.1715841119243 242.4023080016786 445.7268183716973L242.4023080016786 445.7268183716973Q242.4023080016786 452.43207659984125 244.7660321252689 455.3987915712862L244.7660321252689 455.3987915712862ZM289.7973886430557 364.92604475917153L299.87939561918574 317.69980155519386Q292.32995020404525 321.77601968669137 284.032796137565 333.0398887246166L284.032796137565 333.0398887246166Q275.8803598745699 344.23139886079923 268.59623043248547 358.8961362806249L268.59623043248547 358.8961362806249Q280.46309031826536 361.1875015024726 289.7973886430557 364.92604475917153L289.7973886430557 364.92604475917153ZM390.18330499390106 438.6115263670122Q382.97153445355923 438.6115263670122 378.8229574203191 436.1513237077652L378.8229574203191 436.1513237077652Q372.9860060130859 432.7504553258648 372.9860060130859 425.7316418568364L372.9860060130859 425.7316418568364Q372.9860060130859 421.0524328774842 375.1808926992769 415.62551524679225L375.1808926992769 415.62551524679225Q378.41292364377796 419.09874253043506 381.1143226421668 420.4976812974579Q383.83984127446996 421.89662006448077 386.8789151476575 421.89662006448077L386.8789151476575 421.89662006448077Q395.5378637228505 421.89662006448077 400.1929530682886 411.211622240496L400.1929530682886 411.211622240496Q402.14664341533773 406.8942077698566 403.087309137991 401.41905087133614Q404.00385522673014 395.96801360673 404.00385522673014 390.7099334134373L404.00385522673014 390.7099334134373Q404.00385522673014 380.70028533904974 400.5306279430872 375.10453027095843L400.5306279430872 375.10453027095843Q396.3820509098471 368.5681094802137 387.5542648972547 368.5681094802137L387.5542648972547 368.5681094802137Q382.8991755518167 368.5681094802137 379.59478570557303 369.1711003280684L379.59478570557303 369.1711003280684L365.34008206228873 435.6448113955672L340.328021693277 435.6448113955672L363.89290402743745 325.15276843467757L389.6044337799606 321.77601968669137L381.45199751696543 360.27095541373353L382.46502214136126 360.27095541373353Q387.48190599551214 360.27095541373353 392.0646364392077 357.81075275448643Q396.62324724898895 355.35055009523944 400.120594166546 351.10549452634257L400.120594166546 351.10549452634257Q403.49734291453217 346.9569174931024 405.49927252940967 341.9400336389515Q407.477082510373 336.9472694187149 407.477082510373 332.0992230019633L407.477082510373 332.0992230019633Q407.477082510373 328.3847993791786 406.17462227900694 325.03217026510663Q404.84804241372666 321.67954115103464 402.21900231708025 319.146979590045L402.21900231708025 319.146979590045Q396.2132134724478 313.35826745064014 384.58754992580975 313.35826745064014L384.58754992580975 313.35826745064014Q373.902552101825 313.35826745064014 364.32705743789285 317.94099789433574L364.32705743789285 317.94099789433574Q353.6420596139081 323.1267191858858 347.94982601016 331.93038556456406L347.94982601016 331.93038556456406Q341.1722088802735 342.2053496120076 341.1722088802735 355.5917464343813L341.1722088802735 355.5917464343813Q341.1722088802735 361.1875015024726 342.4505494777254 364.2506950095743L342.4505494777254 364.2506950095743Q342.788224352524 365.36019816962687 343.294736664722 366.20438535662345L343.294736664722 366.20438535662345Q343.6324115395206 366.78325657056394 343.6324115395206 367.38624741841863L343.6324115395206 367.38624741841863Q334.394591750387 367.38624741841863 329.739502404949 363.69594342954804Q325.06029342559674 360.00563944067744 325.06029342559674 351.4431694011412L325.06029342559674 351.4431694011412Q325.06029342559674 339.57630951536123 334.129275777331 328.79483315571974L334.129275777331 328.79483315571974Q338.37433134622785 323.7055903998263 344.2836416552036 319.4364151970153Q350.1688323302652 315.14312036029 357.2117654332077 312.0075679514457L357.2117654332077 312.0075679514457Q372.0453402904326 305.3987882589586 388.0607772094527 305.3987882589586L388.0607772094527 305.3987882589586Q405.95754557377927 305.3987882589586 416.13603108556606 313.8888993967523L416.13603108556606 313.8888993967523Q420.5499240918623 317.60332301953713 422.7930500458816 322.5719676058595Q425.036175999901 327.54061219218204 425.036175999901 333.0398887246166L425.036175999901 333.0398887246166Q425.036175999901 341.2646838893543 420.6222829936048 348.30761699229686L420.6222829936048 348.30761699229686Q415.7018776751107 356.0982587465792 407.6459199477723 360.60863028853214L407.6459199477723 360.60863028853214Q418.0897214326152 362.46584209992454 423.51663906330725 370.6906372646622L423.51663906330725 370.6906372646622Q428.17172840874525 377.90240780500403 428.17172840874525 388.5874056289888L428.17172840874525 388.5874056289888Q428.17172840874525 393.001298635285 427.3275412217488 398.33173773032024Q426.4833540347522 403.6862964592698 424.7949796607591 408.9443766525625L424.7949796607591 408.9443766525625Q420.6222829936048 421.9930986001375 413.0004786767218 429.3737065778787L413.0004786767218 429.3737065778787Q403.49734291453217 438.6115263670122 390.18330499390106 438.6115263670122L390.18330499390106 438.6115263670122ZM454.05209559866773 436.65783601996304Q447.756871147065 436.65783601996304 442.93294436422764 434.75238494074233Q438.1090175813903 432.8469338615216 434.78050810123244 429.4460654796212L434.78050810123244 429.4460654796212Q431.7414342280449 426.3105130707769 430.2218972914511 422.45137164450705Q428.6782407209432 418.5922302182372 428.6782407209432 414.44365318499706L428.6782407209432 414.44365318499706Q428.6782407209432 408.7755392151631 431.5725967906456 404.19280877146764L431.5725967906456 404.19280877146764Q434.1051583516353 400.11659063997 437.9401801439909 398.33173773032024L437.9401801439909 398.33173773032024Q444.7177972738774 386.29604040714105 449.71056149411413 373.92266820916325Q454.72744534826495 361.52517637727124 459.31017579196043 346.8604389574456L459.31017579196043 346.8604389574456L484.99758591056934 343.4836902094595Q486.0106105349653 365.52903560702623 486.85479772196175 377.29941695714933L486.85479772196175 377.29941695714933Q487.6989849089583 389.43159281598537 488.3019757568129 395.1238264197334L488.3019757568129 395.1238264197334Q488.8084880690109 401.73260611222065 488.8084880690109 406.65301143071474L488.8084880690109 406.65301143071474Q488.8084880690109 411.04278480309665 488.13313831941366 413.2617911232019L488.13313831941366 413.2617911232019Q495.923780073696 408.6790606795064 500.6029890530482 404.53048364626625L500.6029890530482 404.53048364626625L507.88711849513265 404.53048364626625Q501.68837257918665 411.7422541866081 495.1278321545278 416.90385584424405Q488.5431720959548 422.06545750188 481.35552118952717 426.2381541690344L481.35552118952717 426.2381541690344Q476.169799897977 431.66507179972643 468.37915814369467 434.2941118963728L468.37915814369467 434.2941118963728Q461.57742137989396 436.65783601996304 454.05209559866773 436.65783601996304L454.05209559866773 436.65783601996304ZM448.52869943231894 422.9337643227908Q455.06512022306356 422.9337643227908 458.9483812832476 419.36405850349115L458.9483812832476 419.36405850349115Q463.6275902625998 415.1190029345943 463.6275902625998 406.821848868114L463.6275902625998 406.821848868114Q463.6275902625998 403.34862158447106 463.1934368521445 398.09054139117836L463.1934368521445 398.09054139117836L462.7834030756033 392.9048200996282Q462.01157479034936 386.1995618714843 461.23974650509535 377.3958954928062L461.23974650509535 377.3958954928062L460.32320041635626 365.6978730444255Q457.8629977571092 373.58499333436464 454.46212937520886 381.32739582081854Q451.0612609933085 389.09391794118676 446.23733421047115 398.5005751677196L446.23733421047115 398.5005751677196Q450.217073806312 400.7195814878247 450.217073806312 404.53048364626625L450.217073806312 404.53048364626625Q450.217073806312 407.90723239425245 448.1910245575203 410.36743505349943L448.1910245575203 410.36743505349943Q445.9961378713293 413.0929536858026 442.595269489429 413.0929536858026L442.595269489429 413.0929536858026Q440.9068951154359 413.0929536858026 439.7491526875549 412.6346806414331Q438.61552989358813 412.1522879631493 437.9401801439909 410.8015884639549L437.9401801439909 410.8015884639549Q437.9401801439909 417.0726932816434 440.400382803238 419.99116898525995Q442.8364658285708 422.9337643227908 448.52869943231894 422.9337643227908L448.52869943231894 422.9337643227908Z " fill="#0071bc" transform="matrix(0.652707813180236,0,0,0.6527078131802359,0,51.71074017779458)"/><path d="M644.4766034143313 455.3987915712862Q639.7250355332365 455.3987915712862 636.1553297139369 454.9887577947451Q632.6097435285515 454.55460438428963 629.4741911197071 452.9385889120391L629.4741911197071 452.9385889120391Q621.2493959549695 448.9588493161983 621.2493959549695 436.99551089476165L621.2493959549695 436.99551089476165Q621.2493959549695 431.2309183892711 623.0583684985335 423.1749606619327Q624.8914606760117 415.1190029345943 628.2682094239979 405.78470460980395L628.2682094239979 405.78470460980395Q635.7452959373957 385.2830157827452 646.7679686361791 366.3732227940228L646.7679686361791 366.3732227940228Q638.109020060986 366.87973510622066 633.0680165729209 368.95402362284074Q628.027013084856 371.0283121394608 626.4109976126053 375.3457266101002L626.4109976126053 375.3457266101002Q627.1828258978594 375.3457266101002 627.9305345491991 377.1305795197501Q628.7023628344532 378.91543242939986 628.7023628344532 380.77264424079226L628.7023628344532 380.77264424079226Q628.7023628344532 383.83583774789395 625.9044853004075 385.69304955928635Q623.1066077663618 387.57438100459296 618.9580307331216 387.57438100459296L618.9580307331216 387.57438100459296Q614.2788217537695 387.57438100459296 611.3121067823245 385.01769980968913L611.3121067823245 385.01769980968913Q608.1765543734803 382.3886597130428 608.1765543734803 377.4682543945487L608.1765543734803 377.4682543945487Q608.1765543734803 373.1508399239093 610.8055944701266 369.2193395958968Q613.434634566773 365.26371963397014 618.2826809835244 362.3693635642677L618.2826809835244 362.3693635642677Q623.2030863020186 359.40264859282274 629.6671481910207 357.7625134866581Q636.1553297139369 356.0982587465792 643.6324162273347 356.0982587465792L643.6324162273347 356.0982587465792Q647.274480948377 356.0982587465792 652.7013985790691 356.60477105877715L652.7013985790691 356.60477105877715Q667.2937770971521 333.6428795724713 681.8620359813208 320.5700379909821L681.8620359813208 320.5700379909821Q698.8181386229942 305.3987882589586 713.0728422662785 305.3987882589586L713.0728422662785 305.3987882589586Q721.5629534040722 305.3987882589586 726.8210335973652 307.85899091820556L726.8210335973652 307.85899091820556L699.5899669082482 435.6448113955672L674.5779065392364 435.6448113955672L687.8919444598675 372.64432761171133Q681.6208396421789 369.7499715420089 676.1456827436587 368.32691314107194Q670.6705258451382 366.87973510622066 664.6647370005057 366.3732227940228L664.6647370005057 366.3732227940228Q654.8239263635174 387.6467399063355 648.5528215458289 409.8609227413016L648.5528215458289 409.8609227413016Q642.112879290741 432.1715841119243 642.112879290741 445.7268183716973L642.112879290741 445.7268183716973Q642.112879290741 452.43207659984125 644.4766034143313 455.3987915712862L644.4766034143313 455.3987915712862ZM689.5079599321181 364.92604475917153L699.5899669082482 317.69980155519386Q692.0405214931077 321.77601968669137 683.7433674266274 333.0398887246166L683.7433674266274 333.0398887246166Q675.5909311636324 344.23139886079923 668.3068017215478 358.8961362806249L668.3068017215478 358.8961362806249Q680.1736616073279 361.1875015024726 689.5079599321181 364.92604475917153L689.5079599321181 364.92604475917153ZM745.7308265860875 436.65783601996304Q733.8398470663933 436.65783601996304 727.6652207843615 430.84500424664407Q721.4664748684156 425.0562921072392 721.4664748684156 414.44365318499706L721.4664748684156 414.44365318499706Q721.4664748684156 408.7755392151631 722.6483369302107 404.53048364626625L722.6483369302107 404.53048364626625L741.2204550441345 317.5309641177945L766.9319847966576 314.05773683415157L758.6107110962632 353.1315437751342Q763.6034753165 350.09246990194663 767.100822234057 349.0794452775508L767.100822234057 349.0794452775508Q769.6333837950467 348.30761699229686 772.8654147395475 348.30761699229686L772.8654147395475 348.30761699229686Q782.6097468408791 348.30761699229686 787.6989895967724 354.8440377830415L787.6989895967724 354.8440377830415Q793.3671035666064 362.20052612686845 793.3671035666064 377.97476670674666L793.3671035666064 377.97476670674666Q793.3671035666064 383.4016843374386 792.3540789422107 389.72102842295556Q791.3410543178147 396.0403725084725 789.2185265333662 402.2391184244185L789.2185265333662 402.2391184244185Q784.1292837774729 417.0726932816434 774.4573105778841 425.9728381959783L774.4573105778841 425.9728381959783Q762.7592881295034 436.65783601996304 745.7308265860875 436.65783601996304L745.7308265860875 436.65783601996304ZM755.475158687419 419.8705708156891Q760.7332388807117 419.8705708156891 765.8224816366051 412.82763771274654L765.8224816366051 412.82763771274654Q770.2363746429012 406.556532895058 773.1066110786894 396.3780473832711L773.1066110786894 396.3780473832711Q775.8321297109926 386.36839930888357 775.8321297109926 377.29941695714933L775.8321297109926 377.29941695714933Q775.8321297109926 370.25648385420686 773.6131233908875 365.7702319461681L773.6131233908875 365.7702319461681Q772.4312613290922 363.310029286921 770.6464084194424 361.9593297877266Q768.8615555097927 360.60863028853214 766.5701902879448 360.60863028853214L766.5701902879448 360.60863028853214Q763.6034753165 360.60863028853214 761.2397511929096 361.1875015024726L761.2397511929096 361.1875015024726Q757.67004537361 362.12816722512594 756.3193458744156 363.74418269737635L756.3193458744156 363.74418269737635L746.8162101122259 407.8348734925098Q746.3096978000281 409.9574012769583 746.3096978000281 411.8146130883507L746.3096978000281 411.8146130883507Q746.3096978000281 419.8705708156891 755.475158687419 419.8705708156891L755.475158687419 419.8705708156891ZM820.5981702557233 436.65783601996304Q810.6850007169926 436.65783601996304 804.558613702789 430.48320973793125L804.558613702789 430.48320973793125Q797.443321698104 423.1749606619327 797.443321698104 408.7755392151631L797.443321698104 408.7755392151631Q797.443321698104 402.64915220095975 798.6734230277275 395.87153507107325Q799.903524357351 389.09391794118676 802.2913681148555 382.4851382486995L802.2913681148555 382.4851382486995Q807.7182857455475 367.5550848558179 817.1249429720804 358.3896239684269L817.1249429720804 358.3896239684269Q827.9787782334645 347.96994211749825 842.1370033410922 347.96994211749825L842.1370033410922 347.96994211749825Q849.1799364440346 347.96994211749825 852.701402995506 350.38190550891693Q856.198749913063 352.7938689003356 856.198749913063 356.7736084961764L856.198749913063 356.7736084961764L856.198749913063 357.4730778796878L864.6888610508568 317.5309641177945L890.3762711694658 314.05773683415157L870.4534535563475 407.8348734925098Q869.6816252710935 410.36743505349943 869.6816252710935 413.43062856060124L869.6816252710935 413.43062856060124Q869.6816252710935 417.0003343799008 871.3941192790007 418.42339278083784Q873.0824936529939 419.8705708156891 876.8210369096928 419.8705708156891L876.8210369096928 419.8705708156891Q881.6449636925302 419.8705708156891 885.4558658509716 415.5531563450496L885.4558658509716 415.5531563450496Q888.6878967954726 411.7422541866081 890.8827834816636 404.53048364626625L890.8827834816636 404.53048364626625L898.1910325576623 404.53048364626625Q893.6083021139668 417.57920559384127 886.9030438858229 425.1286510089818L886.9030438858229 425.1286510089818Q881.2349299159889 431.39975582667034 874.264355714789 433.85995848591745L874.264355714789 433.85995848591745Q869.2715914945522 435.6448113955672 863.3381615516623 435.6448113955672L863.3381615516623 435.6448113955672Q856.1263910113205 435.6448113955672 851.7124980050241 431.8339092371257Q847.298604998728 428.02300707868426 846.2855803743323 420.7147580026856L846.2855803743323 420.7147580026856Q841.6304910288941 427.75769110562817 836.2035733982023 431.5685932640697L836.2035733982023 431.5685932640697Q829.1606402952596 436.65783601996304 820.5981702557233 436.65783601996304L820.5981702557233 436.65783601996304ZM831.8861589275627 419.8705708156891Q833.743370738955 419.8705708156891 835.8900181573179 418.9299050930358Q838.0607852095945 418.0133590042967 840.0144755566437 416.30086499638946L840.0144755566437 416.30086499638946Q844.5972060003392 412.1522879631493 846.116742936933 405.44702973500534L846.116742936933 405.44702973500534L846.116742936933 404.53048364626625L854.6068540747267 364.7572073217723Q854.003863226872 362.3693635642677 852.8943600668194 360.94630516333075L852.8943600668194 360.94630516333075Q851.1336267910838 358.7272988432255 847.4674424361274 358.7272988432255L847.4674424361274 358.7272988432255Q843.9942151524845 358.7272988432255 840.7380645740693 361.01866406507327Q837.4819139956542 363.310029286921 834.5875579259516 367.38624741841863L834.5875579259516 367.38624741841863Q829.4983151700583 374.7668553961597 826.1939253238147 386.63371528193966L826.1939253238147 386.63371528193966Q824.6743883872209 391.89179547523236 823.9025601019669 397.0292774989541Q823.130731816713 402.1426398887618 823.130731816713 406.31533655591613L823.130731816713 406.31533655591613Q823.130731816713 414.9501654971949 826.3627627612138 418.0133590042967L826.3627627612138 418.0133590042967Q827.4722659212666 419.1952210660918 828.8229654204611 419.5328959408904Q830.1736649196555 419.8705708156891 831.8861589275627 419.8705708156891L831.8861589275627 419.8705708156891ZM908.104202096393 436.65783601996304Q899.8070480299127 436.65783601996304 894.9590016131613 431.73743070146895L894.9590016131613 431.73743070146895Q889.5320839824692 426.3105130707769 889.5320839824692 415.8908312198482L889.5320839824692 415.8908312198482Q889.5320839824692 410.97042590135413 890.8827834816636 404.53048364626625L890.8827834816636 404.53048364626625L902.677284465701 348.8141293044948L927.6893448347128 348.8141293044948L915.2194941010782 407.8348734925098Q914.7129817888801 410.46391358915616 914.7129817888801 412.755278811004L914.7129817888801 412.755278811004Q914.7129817888801 419.8705708156891 919.8987030804303 419.8705708156891L919.8987030804303 419.8705708156891Q924.6502709615252 419.8705708156891 928.4611731199666 415.5531563450496L928.4611731199666 415.5531563450496Q931.5002469931542 411.91109162400744 933.791612215002 404.53048364626625L933.791612215002 404.53048364626625L945.5861131990393 348.8141293044948L970.5981735680509 348.8141293044948L958.1283228344164 407.8348734925098Q957.3806141830767 410.36743505349943 957.3806141830767 413.43062856060124L957.3806141830767 413.43062856060124Q957.3806141830767 417.0003343799008 959.0689885570698 418.42339278083784Q960.7573629310627 419.8705708156891 964.4959061877616 419.8705708156891L964.4959061877616 419.8705708156891Q969.3198329705992 419.8705708156891 973.1548547629548 415.5531563450496L973.1548547629548 415.5531563450496Q976.5316035109408 411.7422541866081 978.5817723936468 404.53048364626625L978.5817723936468 404.53048364626625L985.8659018357312 404.53048364626625Q981.2108124902932 417.7480430312406 974.5779131638917 425.4663258837804L974.5779131638917 425.4663258837804Q968.9821580958005 431.8339092371257 961.939224992858 434.6317867711714L961.939224992858 434.6317867711714Q956.777623335222 436.65783601996304 951.0130308297314 436.65783601996304L951.0130308297314 436.65783601996304Q943.5600639502477 436.65783601996304 939.1461709439513 432.5092589867229Q934.7322779376552 428.36068195348275 933.791612215002 420.20824569048773L933.791612215002 420.20824569048773Q927.8581822721119 429.7113814526773 920.4052153926284 433.7875995841748L920.4052153926284 433.7875995841748Q915.0506566636789 436.65783601996304 908.104202096393 436.65783601996304L908.104202096393 436.65783601996304ZM995.7790713744621 436.65783601996304Q987.4819173079818 436.65783601996304 982.6338708912301 431.73743070146895L982.6338708912301 431.73743070146895Q977.2069532605381 426.3105130707769 977.2069532605381 415.8908312198482L977.2069532605381 415.8908312198482Q977.2069532605381 410.97042590135413 978.5817723936468 404.53048364626625L978.5817723936468 404.53048364626625L997.1297708736565 317.5309641177945L1022.8413006261796 314.05773683415157L1002.9184830130612 407.8348734925098Q1002.2190136295499 410.0297601787008 1002.2190136295499 413.43062856060124L1002.2190136295499 413.43062856060124Q1002.2190136295499 417.0003343799008 1003.8832683696287 418.42339278083784Q1005.5475231097078 419.8705708156891 1009.2619467324923 419.8705708156891L1009.2619467324923 419.8705708156891Q1011.8186279273962 419.8705708156891 1014.230591318815 418.73694802172224Q1016.6425547102335 417.57920559384127 1018.6686039590252 415.5531563450496L1018.6686039590252 415.5531563450496Q1022.8413006261796 411.40457931180947 1024.963828410628 404.53048364626625L1024.963828410628 404.53048364626625L1032.2479578527125 404.53048364626625Q1027.5928685072745 417.6756841294981 1020.5499354043318 425.4663258837804L1020.5499354043318 425.4663258837804Q1014.6165054614419 431.8339092371257 1007.1394189480438 434.6317867711714L1007.1394189480438 434.6317867711714Q1001.712501317352 436.65783601996304 995.7790713744621 436.65783601996304L995.7790713744621 436.65783601996304ZM1044.717808586347 436.65783601996304Q1038.4467037686584 436.65783601996304 1033.598657351907 434.75238494074233Q1028.7747305690696 432.8469338615216 1025.470340722826 429.4460654796212L1025.470340722826 429.4460654796212Q1022.4071472157243 426.3105130707769 1020.8876102791305 422.45137164450705Q1019.3680733425367 418.5922302182372 1019.3680733425367 414.44365318499706L1019.3680733425367 414.44365318499706Q1019.3680733425367 408.7755392151631 1022.238309778325 404.19280877146764L1022.238309778325 404.19280877146764Q1024.7949909732288 400.11659063997 1028.6058931316702 398.33173773032024L1028.6058931316702 398.33173773032024Q1035.3835102615567 386.29604040714105 1040.3762744817934 373.92266820916325Q1045.3931583359442 361.52517637727124 1049.9758887796397 346.8604389574456L1049.9758887796397 346.8604389574456L1075.6632988982485 343.4836902094595Q1076.6763235226445 365.52903560702623 1077.520510709641 377.29941695714933L1077.520510709641 377.29941695714933Q1078.3646978966376 389.43159281598537 1078.967688744492 395.1238264197334L1078.967688744492 395.1238264197334Q1079.4742010566902 401.73260611222065 1079.4742010566902 406.65301143071474L1079.4742010566902 406.65301143071474Q1079.4742010566902 411.04278480309665 1078.798851307093 413.2617911232019L1078.798851307093 413.2617911232019Q1086.5894930613752 408.6790606795064 1091.2687020407275 404.53048364626625L1091.2687020407275 404.53048364626625L1098.552831482812 404.53048364626625Q1092.37820520078 411.7422541866081 1085.793545142207 416.90385584424405Q1079.2330047175483 422.06545750188 1072.0212341772065 426.2381541690344L1072.0212341772065 426.2381541690344Q1066.8355128856563 431.66507179972643 1059.044871131374 434.2941118963728L1059.044871131374 434.2941118963728Q1052.2672540014876 436.65783601996304 1044.717808586347 436.65783601996304L1044.717808586347 436.65783601996304ZM1039.1944124199983 422.9337643227908Q1045.7308332107427 422.9337643227908 1049.638213904841 419.36405850349115L1049.638213904841 419.36405850349115Q1054.2933032502792 415.1190029345943 1054.2933032502792 406.821848868114L1054.2933032502792 406.821848868114Q1054.2933032502792 403.34862158447106 1053.8591498398239 398.09054139117836L1053.8591498398239 398.09054139117836L1053.4491160632826 392.9048200996282Q1052.6772877780286 386.1995618714843 1051.9295791266889 377.3958954928062L1051.9295791266889 377.3958954928062L1050.9889134040354 365.6978730444255Q1048.5287107447884 373.58499333436464 1045.127842362888 381.32739582081854Q1041.751093614902 389.09391794118676 1036.9030471981505 398.5005751677196L1036.9030471981505 398.5005751677196Q1040.9069064279054 400.7195814878247 1040.9069064279054 404.53048364626625L1040.9069064279054 404.53048364626625Q1040.9069064279054 407.90723239425245 1038.8567375451996 410.36743505349943L1038.8567375451996 410.36743505349943Q1036.6618508590086 413.0929536858026 1033.2609824771082 413.0929536858026L1033.2609824771082 413.0929536858026Q1031.5726081031153 413.0929536858026 1030.4148656752343 412.6346806414331Q1029.2812428812674 412.1522879631493 1028.6058931316702 410.8015884639549L1028.6058931316702 410.8015884639549Q1028.6058931316702 417.0726932816434 1031.0660957909174 419.99116898525995Q1033.5262984501644 422.9337643227908 1039.1944124199983 422.9337643227908L1039.1944124199983 422.9337643227908ZM1153.9315109497848 436.65783601996304Q1143.1500345901434 436.65783601996304 1137.9884329325073 430.55556863967377L1137.9884329325073 430.55556863967377Q1133.5021810244684 425.29748844638107 1133.5021810244684 417.0726932816434L1133.5021810244684 417.0726932816434Q1133.5021810244684 413.16531258754515 1134.466966381036 408.0037109299092Q1135.4317517376035 402.817989638359 1137.3854420846526 394.68967300927807L1137.3854420846526 394.68967300927807Q1139.3391324317017 386.36839930888357 1140.3280374221833 381.42387435647527Q1141.2928227787509 376.45522977015287 1141.2928227787509 372.8131650491106L1141.2928227787509 372.8131650491106Q1141.2928227787509 363.9130201347757 1135.0217179610622 363.9130201347757L1135.0217179610622 363.9130201347757Q1130.607824954766 363.9130201347757 1126.8692816980672 368.5681094802137L1126.8692816980672 368.5681094802137Q1123.7337292892228 372.5478490760546 1121.4423640673751 379.9284570537957L1121.4423640673751 379.9284570537957L1109.6719827172521 435.6448113955672L1084.6599223482403 435.6448113955672L1109.8408201546513 317.5309641177945L1135.5282302732603 314.05773683415157L1126.19393194847 357.81075275448643Q1131.2831747043633 352.1185191507384 1137.1442457455107 349.82715392889065L1137.1442457455107 349.82715392889065Q1141.4616602161502 348.1387795548975 1146.454424436387 348.1387795548975L1146.454424436387 348.1387795548975Q1155.2822104489792 348.1387795548975 1160.3714532048725 352.721509998593L1160.3714532048725 352.721509998593Q1165.7983708355646 357.7142742188297 1165.7983708355646 367.72392229321724L1165.7983708355646 367.72392229321724Q1165.7983708355646 373.7538307717639 1163.6034841493736 383.4016843374386L1163.6034841493736 383.4016843374386Q1163.000493301519 386.1995618714843 1161.6497938023244 391.7953169395756L1161.6497938023244 391.7953169395756Q1159.1895911430775 401.2260938000227 1158.080087983025 406.821848868114L1158.080087983025 406.821848868114Q1157.4047382334277 410.36743505349943 1157.4047382334277 412.58644137360466L1157.4047382334277 412.58644137360466Q1157.4047382334277 416.0596686572476 1158.97251443785 417.9651197364683Q1160.5402906422719 419.8705708156891 1164.3511928007135 419.8705708156891L1164.3511928007135 419.8705708156891Q1169.5369140922637 419.8705708156891 1173.0825002776492 415.62551524679225L1173.0825002776492 415.62551524679225Q1175.8080189099521 412.4176039362053 1178.9435713187966 404.53048364626625L1178.9435713187966 404.53048364626625L1186.227700760881 404.53048364626625Q1179.787758505793 423.609114072388 1169.9469478688047 431.2309183892711L1169.9469478688047 431.2309183892711Q1163.000493301519 436.65783601996304 1153.9315109497848 436.65783601996304L1153.9315109497848 436.65783601996304ZM1203.7867942504088 436.65783601996304Q1190.9792686419758 436.65783601996304 1184.03281407469 430.21789376487516L1184.03281407469 430.21789376487516Q1176.6522060969487 423.34379809933193 1176.6522060969487 409.11321408996173L1176.6522060969487 409.11321408996173Q1176.6522060969487 403.7586553610123 1177.713469989173 397.2222345702677Q1178.774733881397 390.7099334134373 1180.8972616658457 384.17351262269256L1180.8972616658457 384.17351262269256Q1183.2609857894358 376.8893831806082 1186.9512897783065 370.3529623898636Q1190.641593767177 363.816541599119 1195.5619990856712 358.82377737888226L1195.5619990856712 358.82377737888226Q1206.9223466592532 347.29459236790103 1223.5407744261279 347.29459236790103L1223.5407744261279 347.29459236790103Q1234.1534133483701 347.29459236790103 1238.9773401312075 352.38383512379437L1238.9773401312075 352.38383512379437Q1242.7158833879064 356.36357471963527 1242.7158833879064 363.9130201347757L1242.7158833879064 363.9130201347757Q1242.7158833879064 371.2936281125169 1239.4838524434053 377.7818096354331Q1236.2759411328184 384.2699911583494 1230.5837075290706 389.262755378586L1230.5837075290706 389.262755378586Q1224.8914739253223 394.1831606970801 1217.7038230188946 397.10163640069675Q1210.4920524785528 400.0201121043134 1202.773769626013 400.55074405042546L1202.773769626013 400.55074405042546Q1202.3396162155575 404.9405174228074 1202.3396162155575 407.4971986177112L1202.3396162155575 407.4971986177112Q1202.3396162155575 415.96319012159086 1205.5716471600588 419.1952210660918L1205.5716471600588 419.1952210660918Q1208.3695246941043 422.06545750188 1214.905945484849 422.06545750188L1214.905945484849 422.06545750188Q1224.3126027113817 422.06545750188 1232.1032444656644 417.0003343799008L1232.1032444656644 417.0003343799008Q1235.4076343119077 414.8778065954524 1238.4708278190096 411.93521125792165Q1241.509901692197 409.016735554305 1245.5861198236946 404.53048364626625L1245.5861198236946 404.53048364626625L1251.5195497665845 404.53048364626625Q1243.2947546018468 418.42339278083784 1232.609756777862 426.6481879455756L1232.609756777862 426.6481879455756Q1219.4645562946303 436.65783601996304 1203.7867942504088 436.65783601996304L1203.7867942504088 436.65783601996304ZM1204.1244691252075 392.22947035003097Q1208.9483959080449 391.89179547523236 1213.5311263517403 389.43159281598537Q1218.1138567954358 386.97139015673827 1221.6835626147356 382.9916505608975L1221.6835626147356 382.9916505608975Q1225.229148800121 378.91543242939986 1227.2793176828268 373.8744289413348Q1229.3053669316187 368.8334254532698 1229.3053669316187 363.5753452599771L1229.3053669316187 363.5753452599771Q1229.3053669316187 360.10211797633417 1228.3405815750511 358.269025798856Q1227.3516765845693 356.4359336213778 1224.9879524609792 356.4359336213778L1224.9879524609792 356.4359336213778Q1221.8524000521347 356.4359336213778 1218.668608375462 359.4991271284795Q1215.4848166987895 362.5623206355813 1212.5181017273444 367.8927597306165L1212.5181017273444 367.8927597306165Q1209.8167027289555 372.8855239508532 1207.5976964088504 379.25310730419847Q1205.4028097226594 385.62069065754383 1204.1244691252075 392.22947035003097L1204.1244691252075 392.22947035003097ZM1308.248928732752 436.65783601996304Q1297.4915720070246 436.65783601996304 1292.3058507154744 430.55556863967377L1292.3058507154744 430.55556863967377Q1287.8195988074358 425.29748844638107 1287.8195988074358 417.0726932816434L1287.8195988074358 417.0726932816434Q1287.8195988074358 413.16531258754515 1288.7843841640033 408.0037109299092Q1289.7732891544847 402.817989638359 1291.726979501534 394.68967300927807L1291.726979501534 394.68967300927807Q1293.680669848583 386.36839930888357 1294.6454552051505 381.42387435647527Q1295.610240561718 376.45522977015287 1295.610240561718 372.8131650491106L1295.610240561718 372.8131650491106Q1295.610240561718 363.9130201347757 1289.3391357440296 363.9130201347757L1289.3391357440296 363.9130201347757Q1284.9252427377332 363.9130201347757 1281.2108191149487 368.5681094802137L1281.2108191149487 368.5681094802137Q1278.0752667061042 372.5478490760546 1275.7839014842566 379.9284570537957L1275.7839014842566 379.9284570537957L1263.989400500219 435.6448113955672L1238.9773401312075 435.6448113955672L1264.1582379376184 317.5309641177945L1289.8456480562272 314.05773683415157L1280.5354693653512 357.81075275448643Q1285.6247121212446 352.1185191507384 1291.4616635284779 349.82715392889065L1291.4616635284779 349.82715392889065Q1295.7790779991174 348.1387795548975 1300.7959618532682 348.1387795548975L1300.7959618532682 348.1387795548975Q1309.6237478658604 348.1387795548975 1314.68887098784 352.721509998593L1314.68887098784 352.721509998593Q1320.115788618532 357.7142742188297 1320.115788618532 367.72392229321724L1320.115788618532 367.72392229321724Q1320.115788618532 373.7538307717639 1317.9209019323407 383.4016843374386L1317.9209019323407 383.4016843374386Q1317.3179110844862 386.1995618714843 1315.9672115852916 391.7953169395756L1315.9672115852916 391.7953169395756Q1313.5070089260446 401.2260938000227 1312.4216253999061 406.821848868114L1312.4216253999061 406.821848868114Q1311.7221560163948 410.36743505349943 1311.7221560163948 412.58644137360466L1311.7221560163948 412.58644137360466Q1311.7221560163948 416.0596686572476 1313.2899322208168 417.9651197364683Q1314.8818280591533 419.8705708156891 1318.6927302175948 419.8705708156891L1318.6927302175948 419.8705708156891Q1323.8543318752309 419.8705708156891 1327.4240376945304 415.62551524679225L1327.4240376945304 415.62551524679225Q1330.1254366929193 412.4176039362053 1333.2609891017637 404.53048364626625L1333.2609891017637 404.53048364626625L1340.5692381777621 404.53048364626625Q1334.1292959226744 423.609114072388 1324.288485285686 431.2309183892711L1324.288485285686 431.2309183892711Q1317.3179110844862 436.65783601996304 1308.248928732752 436.65783601996304L1308.248928732752 436.65783601996304Z " fill="#0071bc" transform="matrix(0.652707813180236,0,0,0.6527078131802359,0,51.71074017779458)"/></g></svg>